<mxfile host="app.diagrams.net" modified="2023-09-17T17:51:03.371Z" agent="Mozilla/5.0 (Windows NT 10.0; Win64; x64) AppleWebKit/537.36 (KHTML, like Gecko) Chrome/116.0.0.0 Safari/537.36" etag="gpH4Nz_cSsOQciFt3piA" version="21.7.5" type="device">
  <diagram id="prtHgNgQTEPvFCAcTncT" name="Page-1">
    <mxGraphModel dx="1728" dy="632" grid="0" gridSize="10" guides="1" tooltips="1" connect="1" arrows="1" fold="1" page="1" pageScale="1" pageWidth="827" pageHeight="1169" math="0" shadow="0">
      <root>
        <mxCell id="0" />
        <mxCell id="1" parent="0" />
        <mxCell id="tVMPRvsjmvTTXDhTjphR-1" value="Пользователь" style="shape=umlActor;verticalLabelPosition=bottom;verticalAlign=top;html=1;outlineConnect=0;" parent="1" vertex="1">
          <mxGeometry x="550" y="268" width="30" height="60" as="geometry" />
        </mxCell>
        <mxCell id="tVMPRvsjmvTTXDhTjphR-4" value="Администратор" style="shape=umlActor;verticalLabelPosition=bottom;verticalAlign=top;html=1;outlineConnect=0;" parent="1" vertex="1">
          <mxGeometry x="338" y="454" width="30" height="60" as="geometry" />
        </mxCell>
        <mxCell id="tVMPRvsjmvTTXDhTjphR-5" value="Работник" style="shape=umlActor;verticalLabelPosition=bottom;verticalAlign=top;html=1;outlineConnect=0;" parent="1" vertex="1">
          <mxGeometry x="558" y="454" width="30" height="60" as="geometry" />
        </mxCell>
        <mxCell id="tVMPRvsjmvTTXDhTjphR-6" value="Просмотр услуг" style="ellipse;whiteSpace=wrap;html=1;" parent="1" vertex="1">
          <mxGeometry x="371" y="218" width="110" height="50" as="geometry" />
        </mxCell>
        <mxCell id="tVMPRvsjmvTTXDhTjphR-7" value="Оформление заказа" style="ellipse;whiteSpace=wrap;html=1;" parent="1" vertex="1">
          <mxGeometry x="690" y="268" width="110" height="50" as="geometry" />
        </mxCell>
        <mxCell id="tVMPRvsjmvTTXDhTjphR-8" value="Просмотр и отмена заказов" style="ellipse;whiteSpace=wrap;html=1;" parent="1" vertex="1">
          <mxGeometry x="462" y="174" width="110" height="50" as="geometry" />
        </mxCell>
        <mxCell id="tVMPRvsjmvTTXDhTjphR-9" value="Редактирование аккаунта" style="ellipse;whiteSpace=wrap;html=1;" parent="1" vertex="1">
          <mxGeometry x="580" y="198" width="110" height="50" as="geometry" />
        </mxCell>
        <mxCell id="tVMPRvsjmvTTXDhTjphR-16" value="" style="endArrow=classic;html=1;rounded=0;" parent="1" source="tVMPRvsjmvTTXDhTjphR-1" target="tVMPRvsjmvTTXDhTjphR-6" edge="1">
          <mxGeometry width="50" height="50" relative="1" as="geometry">
            <mxPoint x="482" y="368" as="sourcePoint" />
            <mxPoint x="532" y="318" as="targetPoint" />
          </mxGeometry>
        </mxCell>
        <mxCell id="tVMPRvsjmvTTXDhTjphR-17" value="" style="endArrow=classic;html=1;rounded=0;entryX=0.5;entryY=1;entryDx=0;entryDy=0;" parent="1" target="tVMPRvsjmvTTXDhTjphR-8" edge="1">
          <mxGeometry width="50" height="50" relative="1" as="geometry">
            <mxPoint x="552" y="298" as="sourcePoint" />
            <mxPoint x="450" y="304" as="targetPoint" />
          </mxGeometry>
        </mxCell>
        <mxCell id="tVMPRvsjmvTTXDhTjphR-18" value="" style="endArrow=classic;html=1;rounded=0;entryX=0.5;entryY=1;entryDx=0;entryDy=0;" parent="1" target="tVMPRvsjmvTTXDhTjphR-9" edge="1">
          <mxGeometry width="50" height="50" relative="1" as="geometry">
            <mxPoint x="582" y="298" as="sourcePoint" />
            <mxPoint x="460" y="314" as="targetPoint" />
          </mxGeometry>
        </mxCell>
        <mxCell id="tVMPRvsjmvTTXDhTjphR-19" value="" style="endArrow=classic;html=1;rounded=0;entryX=0;entryY=0.5;entryDx=0;entryDy=0;" parent="1" source="tVMPRvsjmvTTXDhTjphR-1" target="tVMPRvsjmvTTXDhTjphR-7" edge="1">
          <mxGeometry width="50" height="50" relative="1" as="geometry">
            <mxPoint x="580" y="328" as="sourcePoint" />
            <mxPoint x="470" y="324" as="targetPoint" />
          </mxGeometry>
        </mxCell>
        <mxCell id="tVMPRvsjmvTTXDhTjphR-20" value="Выполнение заказа" style="ellipse;whiteSpace=wrap;html=1;" parent="1" vertex="1">
          <mxGeometry x="661" y="479" width="110" height="50" as="geometry" />
        </mxCell>
        <mxCell id="tVMPRvsjmvTTXDhTjphR-21" value="" style="endArrow=classic;html=1;rounded=0;entryX=0;entryY=0.5;entryDx=0;entryDy=0;" parent="1" source="tVMPRvsjmvTTXDhTjphR-5" target="tVMPRvsjmvTTXDhTjphR-20" edge="1">
          <mxGeometry width="50" height="50" relative="1" as="geometry">
            <mxPoint x="640" y="564" as="sourcePoint" />
            <mxPoint x="690" y="514" as="targetPoint" />
          </mxGeometry>
        </mxCell>
        <mxCell id="tVMPRvsjmvTTXDhTjphR-22" value="" style="endArrow=classic;html=1;rounded=0;" parent="1" source="tVMPRvsjmvTTXDhTjphR-4" target="tVMPRvsjmvTTXDhTjphR-1" edge="1">
          <mxGeometry width="50" height="50" relative="1" as="geometry">
            <mxPoint x="440" y="504" as="sourcePoint" />
            <mxPoint x="490" y="454" as="targetPoint" />
            <Array as="points">
              <mxPoint x="456" y="412" />
            </Array>
          </mxGeometry>
        </mxCell>
        <mxCell id="tVMPRvsjmvTTXDhTjphR-23" value="" style="endArrow=classic;html=1;rounded=0;" parent="1" source="tVMPRvsjmvTTXDhTjphR-5" target="tVMPRvsjmvTTXDhTjphR-1" edge="1">
          <mxGeometry width="50" height="50" relative="1" as="geometry">
            <mxPoint x="580" y="454" as="sourcePoint" />
            <mxPoint x="630" y="404" as="targetPoint" />
            <Array as="points" />
          </mxGeometry>
        </mxCell>
        <mxCell id="tVMPRvsjmvTTXDhTjphR-24" value="" style="endArrow=classic;html=1;rounded=0;" parent="1" source="tVMPRvsjmvTTXDhTjphR-4" target="tVMPRvsjmvTTXDhTjphR-5" edge="1">
          <mxGeometry width="50" height="50" relative="1" as="geometry">
            <mxPoint x="440" y="534" as="sourcePoint" />
            <mxPoint x="490" y="484" as="targetPoint" />
          </mxGeometry>
        </mxCell>
        <mxCell id="tVMPRvsjmvTTXDhTjphR-25" value="добавление/изменение/удаление ритуальных урн" style="ellipse;whiteSpace=wrap;html=1;strokeColor=default;" parent="1" vertex="1">
          <mxGeometry x="57" y="491" width="162" height="70" as="geometry" />
        </mxCell>
        <mxCell id="tVMPRvsjmvTTXDhTjphR-26" value="добавление/изменение/удаление залов" style="ellipse;whiteSpace=wrap;html=1;strokeColor=default;" parent="1" vertex="1">
          <mxGeometry x="135" y="579" width="162" height="70" as="geometry" />
        </mxCell>
        <mxCell id="tVMPRvsjmvTTXDhTjphR-27" value="Отмена/одобрение заказов" style="ellipse;whiteSpace=wrap;html=1;strokeColor=default;" parent="1" vertex="1">
          <mxGeometry x="286" y="629" width="162" height="70" as="geometry" />
        </mxCell>
        <mxCell id="tVMPRvsjmvTTXDhTjphR-28" value="добавление/изменение/удаление пользователей" style="ellipse;whiteSpace=wrap;html=1;strokeColor=default;" parent="1" vertex="1">
          <mxGeometry x="452" y="598" width="162" height="70" as="geometry" />
        </mxCell>
        <mxCell id="tVMPRvsjmvTTXDhTjphR-29" value="" style="endArrow=classic;html=1;rounded=0;" parent="1" source="tVMPRvsjmvTTXDhTjphR-4" target="tVMPRvsjmvTTXDhTjphR-27" edge="1">
          <mxGeometry width="50" height="50" relative="1" as="geometry">
            <mxPoint x="353" y="550" as="sourcePoint" />
            <mxPoint x="356" y="574" as="targetPoint" />
          </mxGeometry>
        </mxCell>
        <mxCell id="tVMPRvsjmvTTXDhTjphR-30" value="" style="endArrow=classic;html=1;rounded=0;entryX=0.5;entryY=0;entryDx=0;entryDy=0;" parent="1" source="tVMPRvsjmvTTXDhTjphR-4" target="tVMPRvsjmvTTXDhTjphR-28" edge="1">
          <mxGeometry width="50" height="50" relative="1" as="geometry">
            <mxPoint x="430" y="602" as="sourcePoint" />
            <mxPoint x="480" y="552" as="targetPoint" />
          </mxGeometry>
        </mxCell>
        <mxCell id="tVMPRvsjmvTTXDhTjphR-31" value="" style="endArrow=classic;html=1;rounded=0;entryX=1;entryY=0.5;entryDx=0;entryDy=0;" parent="1" target="tVMPRvsjmvTTXDhTjphR-25" edge="1">
          <mxGeometry width="50" height="50" relative="1" as="geometry">
            <mxPoint x="336" y="490" as="sourcePoint" />
            <mxPoint x="299" y="476" as="targetPoint" />
          </mxGeometry>
        </mxCell>
        <mxCell id="tVMPRvsjmvTTXDhTjphR-32" value="" style="endArrow=classic;html=1;rounded=0;entryX=0.5;entryY=0;entryDx=0;entryDy=0;" parent="1" source="tVMPRvsjmvTTXDhTjphR-4" target="tVMPRvsjmvTTXDhTjphR-26" edge="1">
          <mxGeometry width="50" height="50" relative="1" as="geometry">
            <mxPoint x="266" y="572" as="sourcePoint" />
            <mxPoint x="316" y="522" as="targetPoint" />
          </mxGeometry>
        </mxCell>
        <mxCell id="S7v1LU_y3D_w-WjpSIeZ-1" value="добавление/изменение/удаление гробов" style="ellipse;whiteSpace=wrap;html=1;strokeColor=default;" vertex="1" parent="1">
          <mxGeometry x="63" y="405" width="162" height="70" as="geometry" />
        </mxCell>
        <mxCell id="S7v1LU_y3D_w-WjpSIeZ-2" value="" style="endArrow=classic;html=1;rounded=0;entryX=1;entryY=0.5;entryDx=0;entryDy=0;" edge="1" parent="1" target="S7v1LU_y3D_w-WjpSIeZ-1">
          <mxGeometry width="50" height="50" relative="1" as="geometry">
            <mxPoint x="333" y="479" as="sourcePoint" />
            <mxPoint x="310" y="386" as="targetPoint" />
          </mxGeometry>
        </mxCell>
        <mxCell id="S7v1LU_y3D_w-WjpSIeZ-3" value="добавление/изменение/удаление церемоний" style="ellipse;whiteSpace=wrap;html=1;strokeColor=default;" vertex="1" parent="1">
          <mxGeometry x="116" y="308" width="162" height="70" as="geometry" />
        </mxCell>
        <mxCell id="S7v1LU_y3D_w-WjpSIeZ-4" value="" style="endArrow=classic;html=1;rounded=0;entryX=1;entryY=1;entryDx=0;entryDy=0;" edge="1" parent="1" target="S7v1LU_y3D_w-WjpSIeZ-3">
          <mxGeometry width="50" height="50" relative="1" as="geometry">
            <mxPoint x="333" y="456" as="sourcePoint" />
            <mxPoint x="371" y="378" as="targetPoint" />
          </mxGeometry>
        </mxCell>
      </root>
    </mxGraphModel>
  </diagram>
</mxfile>
